<svg width="20" height="20" viewBox="0 0 20 20" fill="none" xmlns="http://www.w3.org/2000/svg">
<path d="M17.5905 14.787L4.44785 1.64438C3.63053 0.827066 2.30065 0.827034 1.4823 1.64539C0.664985 2.4627 0.664984 3.79261 1.4823 4.60993L14.6249 17.7526C15.4423 18.5699 16.7722 18.5699 17.5895 17.7526C18.4078 16.9342 18.4078 15.6043 17.5905 14.787Z" fill="white"/>
<path d="M14.7431 1.4825L1.60043 14.6252C0.783121 15.4425 0.783089 16.7723 1.60144 17.5907C2.41875 18.408 3.74867 18.408 4.56598 17.5907L17.7086 4.44805C18.5259 3.63073 18.5259 2.30082 17.7086 1.48351C16.8903 0.665155 15.5604 0.665187 14.7431 1.4825V1.4825Z" fill="white"/>
</svg>
