<svg width="12" height="9" viewBox="0 0 12 9" fill="none" xmlns="http://www.w3.org/2000/svg">
<path d="M0.241448 0.70329C1.82767 2.04664 4.61099 4.41001 5.42904 5.14691C5.53886 5.24637 5.65664 5.29693 5.77892 5.29693C5.90095 5.29693 6.01854 5.24684 6.12811 5.14786C6.94686 4.41024 9.73018 2.04664 11.3164 0.70329C11.4152 0.619815 11.4302 0.473089 11.3503 0.371035C11.1654 0.135213 10.8899 0 10.5945 0H0.963316C0.667991 0 0.392395 0.135213 0.207589 0.371058C0.127634 0.473089 0.142691 0.619815 0.241448 0.70329Z" fill="white"/>
<path d="M11.4175 1.43126C11.3322 1.39153 11.2318 1.40539 11.1608 1.46607C10.1219 2.34665 8.75319 3.51012 7.72094 4.39799C7.66663 4.44456 7.63607 4.51298 7.63724 4.58469C7.63841 4.65618 7.67157 4.72365 7.72753 4.76832C8.68667 5.53651 10.1321 6.59323 11.1758 7.34426C11.2174 7.37435 11.2668 7.38963 11.3164 7.38963C11.3541 7.38963 11.3917 7.38094 11.4262 7.36307C11.5067 7.32192 11.5572 7.23914 11.5572 7.14885V1.6497C11.5572 1.55589 11.5026 1.47054 11.4175 1.43126Z" fill="white"/>
<path d="M0.381397 7.3443C1.42541 6.59327 2.87104 5.53657 3.82992 4.76836C3.88588 4.72369 3.91904 4.65619 3.92022 4.58473C3.92139 4.51301 3.89083 4.44459 3.83652 4.39802C2.80424 3.51015 1.43527 2.34669 0.396453 1.46611C0.324964 1.40543 0.224332 1.39204 0.139683 1.4313C0.0545594 1.47058 0 1.55592 0 1.64974V7.1489C0 7.2392 0.0505639 7.32197 0.13097 7.36312C0.165529 7.381 0.203159 7.38969 0.240788 7.38969C0.290404 7.38969 0.339772 7.37441 0.381397 7.3443Z" fill="white"/>
<path d="M11.2625 7.99936C10.2545 7.27819 8.39761 5.93368 7.28918 5.03403C7.19889 4.96044 7.06814 4.96279 6.97927 5.03945C6.76178 5.2292 6.57977 5.38911 6.45068 5.50525C6.05422 5.86312 5.504 5.86312 5.10663 5.50477C4.978 5.38886 4.79602 5.22848 4.5785 5.03942C4.49033 4.96229 4.35936 4.95994 4.26882 5.03401C3.16413 5.93059 1.30514 7.27674 0.295467 7.99933C0.239259 8.03979 0.203052 8.10209 0.196009 8.17098C0.189192 8.23987 0.211991 8.30829 0.259259 8.35908C0.441515 8.55545 0.698285 8.66809 0.963294 8.66809H10.5945C10.8595 8.66809 11.1161 8.55545 11.2988 8.35911C11.3458 8.30854 11.3688 8.24012 11.362 8.17123C11.3549 8.10236 11.3187 8.03981 11.2625 7.99936Z" fill="white"/>
</svg>
