<svg width="18" height="19" viewBox="0 0 18 19" fill="none" xmlns="http://www.w3.org/2000/svg">
<path d="M17.158 5.85519C17.1176 4.94102 16.9698 4.31254 16.758 3.76795C16.5396 3.18989 16.2035 2.67234 15.7631 2.24211C15.3329 1.80518 14.8119 1.46566 14.2406 1.25061C13.6928 1.03884 13.0676 0.891009 12.1535 0.850704C11.2325 0.806984 10.9401 0.796875 8.60418 0.796875C6.26828 0.796875 5.9759 0.806984 5.05832 0.84729C4.14415 0.887596 3.51567 1.03556 2.97121 1.2472C2.39301 1.46566 1.87547 1.80176 1.44523 2.24211C1.0083 2.67234 0.66892 3.1933 0.453736 3.76467C0.241966 4.31254 0.0941345 4.93761 0.0538286 5.85178C0.0101093 6.77277 0 7.06516 0 9.40106C0 11.737 0.0101093 12.0293 0.0504151 12.9469C0.090721 13.8611 0.238684 14.4896 0.450454 15.0342C0.66892 15.6122 1.0083 16.1298 1.44523 16.56C1.87547 16.9969 2.39643 17.3364 2.9678 17.5515C3.51567 17.7633 4.14074 17.9111 5.05504 17.9514C5.97249 17.9918 6.265 18.0018 8.6009 18.0018C10.9368 18.0018 11.2292 17.9918 12.1468 17.9514C13.0609 17.9111 13.6894 17.7633 14.2339 17.5515C15.3901 17.1045 16.3043 16.1903 16.7513 15.0342C16.963 14.4863 17.111 13.8611 17.1513 12.9469C17.1916 12.0293 17.2017 11.737 17.2017 9.40106C17.2017 7.06516 17.1983 6.77277 17.158 5.85519ZM15.6086 12.8797C15.5716 13.72 15.4304 14.1737 15.3128 14.4762C15.0237 15.2257 14.4288 15.8206 13.6793 16.1097C13.3768 16.2273 12.9198 16.3685 12.0828 16.4053C11.1754 16.4458 10.9032 16.4558 8.6076 16.4558C6.312 16.4558 6.03642 16.4458 5.13223 16.4053C4.29198 16.3685 3.83825 16.2273 3.53576 16.1097C3.16276 15.9718 2.82325 15.7534 2.54767 15.4677C2.26199 15.1887 2.04352 14.8526 1.90567 14.4796C1.78803 14.1771 1.64689 13.72 1.61 12.8831C1.56957 11.9756 1.55959 11.7033 1.55959 9.40775C1.55959 7.11216 1.56957 6.83658 1.61 5.93252C1.64689 5.09227 1.78803 4.63853 1.90567 4.33604C2.04352 3.96292 2.26199 3.62354 2.55108 3.34783C2.82994 3.06214 3.16604 2.84368 3.53917 2.70595C3.84166 2.58832 4.29881 2.44718 5.13565 2.41016C6.04312 2.36985 6.31541 2.35974 8.61088 2.35974C10.9099 2.35974 11.1821 2.36985 12.0862 2.41016C12.9265 2.44718 13.3802 2.58832 13.6827 2.70595C14.0557 2.84368 14.3952 3.06214 14.6708 3.34783C14.9565 3.62682 15.175 3.96292 15.3128 4.33604C15.4304 4.63853 15.5716 5.09555 15.6086 5.93252C15.6489 6.83999 15.659 7.11216 15.659 9.40775C15.659 11.7033 15.6489 11.9722 15.6086 12.8797Z" fill="white"/>
<path d="M8.6043 4.98145C6.16428 4.98145 4.18457 6.96103 4.18457 9.40117C4.18457 11.8413 6.16428 13.8209 8.6043 13.8209C11.0444 13.8209 13.024 11.8413 13.024 9.40117C13.024 6.96103 11.0444 4.98145 8.6043 4.98145ZM8.6043 12.2681C7.02134 12.2681 5.73733 10.9843 5.73733 9.40117C5.73733 7.81808 7.02134 6.5342 8.6043 6.5342C10.1874 6.5342 11.4713 7.81808 11.4713 9.40117C11.4713 10.9843 10.1874 12.2681 8.6043 12.2681Z" fill="white"/>
<path d="M14.2307 4.80622C14.2307 5.37601 13.7687 5.83802 13.1988 5.83802C12.629 5.83802 12.167 5.37601 12.167 4.80622C12.167 4.23629 12.629 3.77441 13.1988 3.77441C13.7687 3.77441 14.2307 4.23629 14.2307 4.80622Z" fill="white"/>
</svg>
