<svg width="19" height="19" viewBox="0 0 19 19" fill="none" xmlns="http://www.w3.org/2000/svg">
<path d="M18.9955 18.0012V18.0005H19V11.3984C19 8.16862 18.3047 5.68066 14.5288 5.68066C12.7137 5.68066 11.4956 6.67675 10.9983 7.62108H10.9458V5.98219H7.36572V18.0005H11.0935V12.0495C11.0935 10.4826 11.3906 8.96744 13.331 8.96744C15.2429 8.96744 15.2714 10.7556 15.2714 12.15V18.0012H18.9955Z" fill="white"/>
<path d="M1.29541 5.9834H5.02773V18.0017H1.29541V5.9834Z" fill="white"/>
<path d="M3.16022 0C1.96687 0 0.998535 0.968332 0.998535 2.16168C0.998535 3.35504 1.96687 4.34362 3.16022 4.34362C4.35357 4.34362 5.3219 3.35504 5.3219 2.16168C5.32115 0.968332 4.35282 0 3.16022 0V0Z" fill="white"/>
</svg>
