<svg width="16" height="16" viewBox="0 0 16 16" fill="none" xmlns="http://www.w3.org/2000/svg">
<path d="M7.99985 0C5.0591 0 2.6665 2.39259 2.6665 5.33334C2.6665 6.21616 2.88722 7.09147 3.30682 7.86784L7.70819 15.8281C7.76679 15.9342 7.87844 16 7.99985 16C8.12125 16 8.23291 15.9342 8.2915 15.8281L12.6945 7.86522C13.1125 7.09147 13.3332 6.21613 13.3332 5.33331C13.3332 2.39259 10.9406 0 7.99985 0ZM7.99985 8C6.52947 8 5.33319 6.80372 5.33319 5.33334C5.33319 3.86297 6.52947 2.66669 7.99985 2.66669C9.47022 2.66669 10.6665 3.86297 10.6665 5.33334C10.6665 6.80372 9.47022 8 7.99985 8Z" fill="white"/>
</svg>
