<svg width="13" height="13" viewBox="0 0 13 13" fill="none" xmlns="http://www.w3.org/2000/svg">
<path d="M11.7016 9.79561L10.0211 8.11511C9.42092 7.51494 8.40062 7.75503 8.16055 8.53524C7.98049 9.07542 7.38032 9.37551 6.84016 9.25545C5.6398 8.95536 4.01933 7.3949 3.71924 6.13453C3.53919 5.59435 3.89929 4.99417 4.43945 4.81414C5.21968 4.57407 5.45975 3.55377 4.85957 2.9536L3.17908 1.2731C2.69894 0.852977 1.97873 0.852977 1.5586 1.2731L0.418267 2.41344C-0.722068 3.61379 0.538303 6.79473 3.35913 9.61556C6.17996 12.4364 9.3609 13.7568 10.5613 12.5564L11.7016 11.4161C12.1217 10.9359 12.1217 10.2157 11.7016 9.79561Z" fill="white"/>
</svg>
