<svg width="25" height="24" viewBox="0 0 25 24" fill="none" xmlns="http://www.w3.org/2000/svg">
<path d="M18.3463 15.4914C19.5766 13.8786 20.3124 11.8976 20.3124 9.75004C20.3124 4.37405 15.7561 0 10.1562 0C4.55623 0 0 4.37405 0 9.75004C0 15.126 4.55628 19.5001 10.1562 19.5001C12.3933 19.5001 14.457 18.7936 16.137 17.6125L22.7905 24L25 21.8789C25 21.8789 18.3463 15.4914 18.3463 15.4914ZM10.1562 16.5C6.27897 16.5 3.12501 13.4722 3.12501 9.75004C3.12501 6.02785 6.27897 3.00003 10.1562 3.00003C14.0335 3.00003 17.1874 6.02785 17.1874 9.75004C17.1874 13.4722 14.0334 16.5 10.1562 16.5Z" fill="white"/>
</svg>
