<svg width="21" height="16" viewBox="0 0 21 16" fill="none" xmlns="http://www.w3.org/2000/svg">
<path d="M20.0263 2.85328L20.0511 3.0297C19.8118 2.10352 19.1658 1.38886 18.3449 1.12874L18.3275 1.12424C16.7838 0.667005 10.5719 0.667005 10.5719 0.667005C10.5719 0.667005 4.37564 0.658004 2.81627 1.12424C1.97965 1.38886 1.3328 2.10352 1.09765 3.0108L1.09353 3.0297C0.516803 6.31587 0.512678 10.2645 1.1191 13.7829L1.09353 13.6047C1.3328 14.5308 1.97882 15.2455 2.79977 15.5056L2.81709 15.5101C4.35914 15.9683 10.5727 15.9683 10.5727 15.9683C10.5727 15.9683 16.7682 15.9683 18.3284 15.5101C19.1658 15.2455 19.8127 14.5308 20.0478 13.6236L20.0519 13.6047C20.3143 12.0763 20.4645 10.3176 20.4645 8.52104C20.4645 8.45534 20.4645 8.38873 20.4636 8.32213C20.4645 8.26092 20.4645 8.18802 20.4645 8.11511C20.4645 6.31766 20.3143 4.55892 20.0263 2.85328ZM8.59009 11.6038V5.03956L13.76 8.32663L8.59009 11.6038Z" fill="white"/>
</svg>
